<svg width="72" height="60" viewBox="0 0 72 60" fill="none" xmlns="http://www.w3.org/2000/svg">
<path fill-rule="evenodd" clip-rule="evenodd" d="M43.6133 9.08295C37.1648 11.78 24.2769 17.3622 4.94963 25.8296C1.81117 27.0846 0.16711 28.3123 0.0174425 29.5128C-0.235496 31.5417 2.29117 32.3406 5.73183 33.4285C6.19985 33.5765 6.68477 33.7298 7.18192 33.8923C10.567 34.9988 15.1205 36.2932 17.4877 36.3447C19.635 36.3913 22.0316 35.5011 24.6775 33.6742C42.7356 21.4167 52.0573 15.2212 52.6425 15.0876C53.0554 14.9934 53.6276 14.8749 54.0152 15.2214C54.4029 15.5679 54.3648 16.224 54.3237 16.4C54.0734 17.473 44.1553 26.745 39.0227 31.5432C37.4226 33.0391 36.2876 34.1002 36.0556 34.3425C35.5359 34.8853 35.0062 35.3988 34.4971 35.8923C31.3522 38.9408 28.9939 41.2268 34.6276 44.96C37.3349 46.754 39.5013 48.2375 41.6625 49.7175C44.0229 51.3338 46.3772 52.946 49.4232 54.9538C50.1992 55.4653 50.9404 55.9966 51.6623 56.5141C54.4092 58.4833 56.877 60.2524 59.9258 59.9703C61.6974 59.8063 63.5273 58.1312 64.4567 53.1354C66.6531 41.3286 70.9703 15.747 71.968 5.20542C72.0554 4.28185 71.9454 3.09985 71.8571 2.58098C71.7688 2.06211 71.5843 1.32283 70.9136 0.77556C70.1192 0.127434 68.8929 -0.00924382 68.3445 0.000470942C65.8509 0.044642 62.0251 1.38232 43.6133 9.08295Z" fill="#D2D7DB"/>
</svg>
